<?xml version="1.0" encoding="UTF-8" standalone="no"?>
<svg xmlns="http://www.w3.org/2000/svg" xml:space="preserve" width="754.04907" height="214.30263" viewBox="0 0 754.04906 214.30263">
  <g transform="matrix(1.33333 0 0 -1.33333 -174.90173 511.6119)">
    <path fill="#36b1ea" d="M395.6753 282.8709c-4.647-4.772-11.245-7.192-19.607-7.192h-15.712v55.236h15.712c6.13 0 26.189-1.939 26.876-26.876.226-8.606-2.356-16.124-7.269-21.168m-95.724 19.483c-.122-7.026-2.528-29.95-28.363-29.95-25.733 0-28.33 22.849-28.513 29.848-.234 9.238 2.919 18.132 8.436 23.79 4.98 5.11 11.736 7.7 20.077 7.7 8.268 0 14.948-2.531 19.858-7.525 5.567-5.661 8.666-14.36 8.505-23.863m76.117 58.606h-40.929c-3.16 0-5.721-2.562-5.721-5.721v-38.887c-2.347 11.604-7.759 22.185-15.677 30.19-10.677 10.795-25.254 16.501-42.153 16.501-17.609 0-32.506-6.107-43.244-17.657v9.853c0 3.159-2.561 5.721-5.72 5.721h-85.727c-3.16 0-5.721-2.562-5.721-5.721v-17.86c0-3.159 2.561-5.72 5.721-5.72h27.319v-80.602c0-3.16 2.562-5.721 5.721-5.721h19.646c3.159 0 5.72 2.561 5.72 5.721v80.602h23.619c-4.32-8.762-6.634-18.773-6.634-29.255 0-15.781 5.146-30.311 14.489-40.916 10.682-12.125 26.177-18.533 44.811-18.533 18.564 0 34.006 6.505 44.659 18.813 6.59 7.614 11.088 17.228 13.171 27.843v-38.554c0-3.16 2.561-5.721 5.721-5.721h40.929c17.076 0 31.549 5.542 41.858 16.026 10.419 10.597 16.233 26.189 15.952 42.778-.49 28.283-18.556 56.82-57.81 56.82m305.1178-49.63c-9.188 5.737-21.062 7.821-31.487 9.107-16.015 1.907-18.174 4.82-18.174 7.416 0 5.989 8.192 8.122 15.86 8.122 9.077 0 17.197-4.491 19.801-8.832 1.551-2.584 4.842-3.521 7.521-2.143l15.628 8.036c2.772 1.426 3.893 4.809 2.519 7.607-7.669 15.628-23.598 23.888-46.108 23.888-11.543-.089-22.338-2.964-30.395-8.095-10.216-6.504-15.615-16.182-15.615-27.987 0-31.767 32.217-35.598 46.037-37.24 19.002-2.043 19.002-7.763 19.002-9.642 0-9.192-13.962-9.907-18.24-9.907-11.776 0-20.753 4.836-24.014 12.937-.602 1.495-1.807 2.667-3.318 3.227-1.511.56-3.189.456-4.621-.285l-16.372-8.483c-2.624-1.36-3.78-4.495-2.668-7.233 7.974-19.626 24.556-29.166 50.694-29.166 13.462 0 25.14 3.064 33.773 8.86 10.275 6.896 15.704 17.287 15.704 30.05 0 13.316-5.223 23.33-15.527 29.763"/>
    <path fill="#fbc108" d="M600.6617 290.3612c-9.029 11.968-24.846 9.005-33.202 16.337-.435.381-.432 1.071.018 1.434 9.593 7.729 12.321 22.907 26.426 25.942.921.198.977 1.481.092 1.808-14.065 5.186-25.77-5.857-36.764-4.207-.571.086-.942.668-.759 1.216 3.891 11.689-2.02 25.932 8.205 36.112.668.664.02 1.774-.9 1.57-14.637-3.241-18.512-18.859-28.654-23.415-.527-.237-1.153.053-1.297.612-3.045 11.937-15.719 20.724-12.621 34.815.203.921-.941 1.504-1.606.835-10.56-10.641-5.377-25.874-11.445-35.19-.315-.484-.999-.579-1.422-.185-9.015 8.395-24.427 8.934-29.439 22.464-.327.883-1.606.755-1.802-.166-3.132-14.661 9.464-24.674 9.396-35.792-.003-.577-.528-1.027-1.096-.923-12.123 2.188-25.38-5.691-36.911 2.981-.753.566-1.759-.232-1.427-1.113 5.292-14.028 21.303-15.641 27.255-25.031.309-.487.112-1.149-.421-1.37-11.382-4.713-18.275-18.507-32.664-17.447-.94.069-1.355-1.145-.599-1.708 12.036-8.939 26.377-1.641 36.461-6.321.524-.243.715-.906.386-1.381-7.026-10.118-5.367-25.45-18.046-32.337-.828-.449-.519-1.696.42-1.76 14.958-1.013 23.076 12.879 34.09 14.394.573.079 1.093-.375 1.071-.952-.44-12.312 9.244-24.313 2.302-36.96-.453-.826.48-1.708 1.306-1.254 13.13 7.234 12.449 23.31 20.895 30.539.439.376 1.122.274 1.417-.222 6.285-10.595 20.921-15.455 21.918-29.848.064-.941 1.327-1.178 1.775-.349 7.136 13.185-2.129 26.341 1.069 36.988.166.554.795.837 1.311.579 11.016-5.515 25.956-1.691 34.576-13.26.563-.756 1.753-.274 1.683.666-1.126 14.95-16.032 21.008-19.1 31.695-.159.555.217 1.134.791 1.195 12.25 1.316 22.749 12.611 36.257 7.538.882-.331 1.622.718 1.055 1.471"/>
  </g>
</svg>